<?xml version="1.0" encoding="UTF-8"?>
<svg id="Layer_1" data-name="Layer 1" xmlns="http://www.w3.org/2000/svg" version="1.1" viewBox="0 0 16 16">
  <defs>
    <style>
      .cls-1 {
        fill: #fff;
        stroke-width: 0px;
      }
    </style>
  </defs>
  <path class="cls-1" d="M0,1.5c0-.3.2-.5.5-.5h1.5c.2,0,.4.2.5.4l.4,1.6h11.6c.3,0,.5.2.5.5,0,0,0,0,0,0l-1.5,8c0,.2-.3.4-.5.4H4c-.2,0-.4-.2-.5-.4l-1.5-8-.4-1.6H.5c-.3,0-.5-.2-.5-.5M5,12c-1.1,0-2,.9-2,2s.9,2,2,2,2-.9,2-2-.9-2-2-2M12,12c-1.1,0-2,.9-2,2s.9,2,2,2,2-.9,2-2-.9-2-2-2M5,13c.6,0,1,.4,1,1s-.4,1-1,1-1-.4-1-1,.4-1,1-1M12,13c.6,0,1,.4,1,1s-.4,1-1,1-1-.4-1-1,.4-1,1-1"/>
</svg>