<?xml version="1.0" encoding="UTF-8"?>
<svg id="Layer_1" data-name="Layer 1" xmlns="http://www.w3.org/2000/svg" version="1.1" viewBox="0 0 16 16">
  <defs>
    <style>
      .cls-1 {
        fill: #fff;
        stroke-width: 0px;
      }
    </style>
  </defs>
  <path class="cls-1" d="M1.9.5c.2,0,.3,0,.4.1l.6.6.6-.6c.2-.2.5-.2.7,0,0,0,0,0,0,0l.6.6.6-.6c.2-.2.5-.2.7,0,0,0,0,0,0,0l.6.6.6-.6c.2-.2.5-.2.7,0,0,0,0,0,0,0l.6.6.6-.6c.2-.2.5-.2.7,0,0,0,0,0,0,0l.6.6.6-.6c.2-.2.5-.2.7,0,0,0,0,0,0,0l.6.6.6-.6c.2-.2.5-.2.7,0,0,0,0,0,0,.1l.5,1c0,0,0,.1,0,.2v12c0,0,0,.2,0,.2l-.5,1c-.1.2-.4.3-.7.2,0,0,0,0-.1,0l-.6-.6-.6.6c-.2.2-.5.2-.7,0,0,0,0,0,0,0l-.6-.6-.6.6c-.2.2-.5.2-.7,0,0,0,0,0,0,0l-.6-.6-.6.6c-.2.2-.5.2-.7,0,0,0,0,0,0,0l-.6-.6-.6.6c-.2.2-.5.2-.7,0,0,0,0,0,0,0l-.6-.6-.6.6c-.2.2-.5.2-.7,0,0,0,0,0,0,0l-.6-.6-.6.6c-.2.2-.5.2-.7,0,0,0,0,0,0-.1l-.5-1c0,0,0-.1,0-.2V2c0,0,0-.2,0-.2l.5-1c0-.1.2-.2.4-.3M2.1,1.8v.3c-.1,0-.1,11.8-.1,11.8v.3c.1,0,.6-.5.6-.5.2-.2.5-.2.7,0l.6.6.6-.6c.2-.2.5-.2.7,0,0,0,0,0,0,0l.6.6.6-.6c.2-.2.5-.2.7,0,0,0,0,0,0,0l.6.6.6-.6c.2-.2.5-.2.7,0,0,0,0,0,0,0l.6.6.6-.6c.2-.2.5-.2.7,0,0,0,0,0,0,0l.6.6.6-.6c.2-.2.5-.2.7,0,0,0,0,0,0,0l.5.5v-.3c.1,0,.1-11.8.1-11.8v-.3c-.1,0-.6.5-.6.5-.2.2-.5.2-.7,0l-.6-.6-.6.6c-.2.2-.5.2-.7,0,0,0,0,0,0,0l-.6-.6-.6.6c-.2.2-.5.2-.7,0,0,0,0,0,0,0l-.6-.6-.6.6c-.2.2-.5.2-.7,0,0,0,0,0,0,0l-.6-.6-.6.6c-.2.2-.5.2-.7,0,0,0,0,0,0,0l-.6-.6-.6.6c-.2.2-.5.2-.7,0,0,0,0,0,0,0l-.5-.5Z"/>
  <path class="cls-1" d="M3,4.5c0-.3.2-.5.5-.5h6c.3,0,.5.2.5.5s-.2.5-.5.5H3.5c-.3,0-.5-.2-.5-.5M3,6.5c0-.3.2-.5.5-.5h6c.3,0,.5.2.5.5s-.2.5-.5.5H3.5c-.3,0-.5-.2-.5-.5M3,8.5c0-.3.2-.5.5-.5h6c.3,0,.5.2.5.5s-.2.5-.5.5H3.5c-.3,0-.5-.2-.5-.5M3,10.5c0-.3.2-.5.5-.5h6c.3,0,.5.2.5.5s-.2.5-.5.5H3.5c-.3,0-.5-.2-.5-.5M11,4.5c0-.3.2-.5.5-.5h1c.3,0,.5.2.5.5s-.2.5-.5.5h-1c-.3,0-.5-.2-.5-.5M11,6.5c0-.3.2-.5.5-.5h1c.3,0,.5.2.5.5s-.2.5-.5.5h-1c-.3,0-.5-.2-.5-.5M11,8.5c0-.3.2-.5.5-.5h1c.3,0,.5.2.5.5s-.2.5-.5.5h-1c-.3,0-.5-.2-.5-.5M11,10.5c0-.3.2-.5.5-.5h1c.3,0,.5.2.5.5s-.2.5-.5.5h-1c-.3,0-.5-.2-.5-.5"/>
</svg>