<?xml version="1.0" encoding="UTF-8"?>
<svg id="Layer_1" data-name="Layer 1" xmlns="http://www.w3.org/2000/svg" version="1.1" viewBox="0 0 16 16">
  <defs>
    <style>
      .cls-1 {
        fill: #fff;
        stroke-width: 0px;
      }
    </style>
  </defs>
  <path class="cls-1" d="M6,12.5c0-.3.2-.5.5-.5h3c.3,0,.5.2.5.5s-.2.5-.5.5h-3c-.3,0-.5-.2-.5-.5M3,8.1c0-1.3,1.2-2.3,2.5-2.2,1.6.2,3.3.2,4.9,0,1.3-.1,2.5.9,2.5,2.2v1.2c0,.5-.3.9-.8.9-.8.1-2.3.3-4.2.3s-3.4-.2-4.2-.3c-.5,0-.8-.5-.8-.9v-1.2ZM7.5,7.2c0,0-.2,0-.2,0l-.9.9c-.6,0-1.2,0-1.9-.2-.1,0-.3,0-.3.2,0,.1,0,.2.2.3.6,0,1.2.1,2,.2,0,0,.1,0,.2,0l.8-.7.8,1.7c0,.1.2.2.3.1,0,0,0,0,0,0l.9-1c.6,0,1.3-.1,1.9-.2.1,0,.2-.2.2-.3,0-.1-.1-.2-.3-.2-.5,0-1.2.1-2,.2,0,0-.1,0-.2,0l-.8.8-.8-1.7c0,0-.1-.1-.2-.1"/>
  <path class="cls-1" d="M8.5,1.9c.5-.3.6-.9.4-1.4-.3-.5-.9-.6-1.4-.4-.5.3-.6.9-.4,1.4,0,.2.2.3.4.4v1.1h-2C3,3,1,5,1,7.5v.5c-.6,0-1,.4-1,1v2c0,.6.4,1,1,1v1c0,1.1.9,2,2,2h10c1.1,0,2-.9,2-2v-1c.6,0,1-.4,1-1v-2c0-.6-.4-1-1-1v-.5c0-2.5-2-4.5-4.5-4.5h-2v-1.1ZM14,7.5v5.5c0,.6-.4,1-1,1H3c-.6,0-1-.4-1-1v-5.5c0-1.9,1.6-3.5,3.5-3.5h5c1.9,0,3.5,1.6,3.5,3.5"/>
</svg>